<svg xmlns="http://www.w3.org/2000/svg" width="46.67" height="46.67" viewBox="0 0 46.67 46.67">
  <g id="chip" transform="translate(0 -0.001)">
    <g id="Group_175" data-name="Group 175" transform="translate(8.769 0.001)">
      <g id="Group_174" data-name="Group 174">
        <path id="Path_80" data-name="Path 80" d="M133.423,22.652H122.415V21.1h2.97a.684.684,0,1,0,0-1.367h-2.97V18.174h2.062a2.856,2.856,0,0,0,2.033-.842l4.5-4.5a2.144,2.144,0,1,0-.967-.967l-4.5,4.5a1.5,1.5,0,0,1-1.067.442h-2.062V15.3a3.61,3.61,0,0,0-3.606-3.606H117.3V5.64a2.145,2.145,0,1,0-1.367,0v6.052h-1.555V8.722a.684.684,0,1,0-1.367,0v2.97h-1.556V.685a.684.684,0,0,0-1.367,0V11.692h-1.555V8.722a.684.684,0,1,0-1.367,0v2.97H105.61V9.63a2.857,2.857,0,0,0-.842-2.033l-4.5-4.5a2.146,2.146,0,1,0-.967.967l4.5,4.5a1.5,1.5,0,0,1,.442,1.067v2.062h-1.508a3.621,3.621,0,0,0-.9.114.684.684,0,1,0,.341,1.324,2.251,2.251,0,0,1,.56-.071h16.075a2.242,2.242,0,0,1,2.239,2.239V31.373a2.251,2.251,0,0,1-.07.56.684.684,0,1,0,1.324.34,3.618,3.618,0,0,0,.113-.9V29.865h6.052a2.145,2.145,0,1,0,0-1.367h-6.052V26.942h2.97a.684.684,0,1,0,0-1.367h-2.97V24.02h11.007a.684.684,0,0,0,0-1.367Zm-2.011-12.288a.778.778,0,1,1-.228.55A.773.773,0,0,1,131.411,10.364ZM98.9,2.7a.777.777,0,1,1,0-1.1A.779.779,0,0,1,98.9,2.7Zm17.717,1.689a.778.778,0,1,1,.778-.778A.779.779,0,0,1,116.617,4.385ZM130.5,28.4a.778.778,0,1,1-.778.778A.779.779,0,0,1,130.5,28.4Z" transform="translate(-96.206 -0.001)" fill="#a5d9ff"/>
      </g>
    </g>
    <g id="Group_177" data-name="Group 177" transform="translate(0 13.884)">
      <g id="Group_176" data-name="Group 176">
        <path id="Path_81" data-name="Path 81" d="M37.273,181.431a2.147,2.147,0,0,0-2.47-.4l-4.5-4.5a1.5,1.5,0,0,1-.442-1.067V173.4h1.508a3.619,3.619,0,0,0,.9-.114.684.684,0,0,0-.341-1.324,2.25,2.25,0,0,1-.56.07H15.3a2.242,2.242,0,0,1-2.239-2.239V153.721a2.249,2.249,0,0,1,.07-.56.684.684,0,0,0-1.324-.341,3.614,3.614,0,0,0-.114.9v1.508H5.639a2.145,2.145,0,1,0,0,1.367h6.052v1.556H8.721a.684.684,0,0,0,0,1.367h2.97v1.555H.684a.684.684,0,0,0,0,1.367H11.691V164H8.721a.684.684,0,1,0,0,1.367h2.97v1.556H9.629a2.856,2.856,0,0,0-2.033.842l-4.5,4.5a2.143,2.143,0,1,0,.967.967l4.5-4.5a1.5,1.5,0,0,1,1.067-.442h2.062V169.8A3.61,3.61,0,0,0,15.3,173.4h1.508v6.052a2.145,2.145,0,1,0,1.367,0V173.4h1.555v2.97a.684.684,0,1,0,1.367,0V173.4h1.555V184.41a.684.684,0,1,0,1.367,0V173.4h1.555v2.97a.684.684,0,1,0,1.367,0V173.4H28.5v2.062a2.857,2.857,0,0,0,.842,2.033l4.5,4.5a2.144,2.144,0,1,0,3.437-.564ZM3.606,156.69a.778.778,0,1,1,.778-.778A.779.779,0,0,1,3.606,156.69ZM2.695,174.73a.778.778,0,1,1,.228-.55A.772.772,0,0,1,2.695,174.73Zm15.572,6.757a.778.778,0,1,1-.778-.778A.779.779,0,0,1,18.267,181.487ZM36.307,183.5a.777.777,0,1,1,0-1.1A.779.779,0,0,1,36.307,183.5Z" transform="translate(0 -152.306)" fill="#a5d9ff"/>
      </g>
    </g>
    <g id="Group_179" data-name="Group 179" transform="translate(16.075 15.345)">
      <g id="Group_178" data-name="Group 178">
        <path id="Path_82" data-name="Path 82" d="M190.876,174.5a3.3,3.3,0,0,0-2.533-3.1,2.331,2.331,0,0,0,.067-.55,2.635,2.635,0,0,0-2.739-2.51,2.844,2.844,0,0,0-2.055.854,2.844,2.844,0,0,0-2.055-.854,2.635,2.635,0,0,0-2.739,2.51,2.332,2.332,0,0,0,.067.55,3.3,3.3,0,0,0-2.533,3.1,3,3,0,0,0,.72,1.945,3.38,3.38,0,0,0-.72,2.073A3.521,3.521,0,0,0,178,181.444v0a3.026,3.026,0,0,0,3.15,2.876,3.262,3.262,0,0,0,2.466-1.09,3.262,3.262,0,0,0,2.466,1.09,3.046,3.046,0,0,0,3.143-2.7,3.2,3.2,0,0,0,1.651-2.735,3.081,3.081,0,0,0-.951-2.192A3.082,3.082,0,0,0,190.876,174.5Zm-2.42,2.8a1.824,1.824,0,0,1,1.052,1.588,1.749,1.749,0,0,1-.6,1.285,3.069,3.069,0,0,0-1.8-1.447.684.684,0,0,0-.41,1.3,1.551,1.551,0,0,1,1.165,1.415,1.807,1.807,0,0,1-3.565,0v-4.384a1.665,1.665,0,0,1,1.782-1.508.684.684,0,0,0,0-1.367,3.343,3.343,0,0,0-1.782.507v-.873a.684.684,0,1,0-1.367,0v3.8a3.254,3.254,0,0,0-.755-.35.684.684,0,1,0-.41,1.3,1.551,1.551,0,0,1,1.165,1.415v1.461a1.807,1.807,0,0,1-3.565,0,1.378,1.378,0,0,1,.425-.976.684.684,0,0,0-.964-.97,2.908,2.908,0,0,0-.422.53,2.085,2.085,0,0,1-.684-1.507,2.328,2.328,0,0,1,1.933-2.164.684.684,0,1,0-.306-1.333,4.165,4.165,0,0,0-1.254.511,1.65,1.65,0,0,1-.373-1.033,2.052,2.052,0,0,1,2.177-1.873h.018a.683.683,0,0,0,.58-1.043l-.015-.025-.009-.012c-.011-.015-.021-.029-.033-.043h0a1.015,1.015,0,0,1-.25-.656,1.394,1.394,0,0,1,2.743,0,.684.684,0,0,0,1.367,0,1.394,1.394,0,0,1,2.743,0,.961.961,0,0,1-.1.43,3.8,3.8,0,0,0-1.122.281.684.684,0,0,0,.531,1.26,2.468,2.468,0,0,1,.945-.191h.038a2.052,2.052,0,0,1,2.176,1.873,1.824,1.824,0,0,1-1.052,1.588.684.684,0,0,0,0,1.209Z" transform="translate(-176.357 -168.34)" fill="#a5d9ff"/>
      </g>
    </g>
  </g>
</svg>
