<svg id="chip" xmlns="http://www.w3.org/2000/svg" width="45.315" height="45.315" viewBox="0 0 45.315 45.315">
  <g id="Group_175" data-name="Group 175" transform="translate(8.515 0)">
    <g id="Group_174" data-name="Group 174">
      <path id="Path_80" data-name="Path 80" d="M132.342,21.995H121.654v-1.51h2.884a.664.664,0,0,0,0-1.328h-2.884v-1.51h2a2.774,2.774,0,0,0,1.974-.818L130,12.463a2.081,2.081,0,1,0-.939-.939l-4.366,4.366a1.455,1.455,0,0,1-1.036.429h-2V14.854a3.506,3.506,0,0,0-3.5-3.5h-1.465V5.476a2.083,2.083,0,1,0-1.328,0v5.876h-1.51V8.469a.664.664,0,1,0-1.328,0v2.884h-1.51V.665a.664.664,0,1,0-1.328,0V11.353h-1.51V8.469a.664.664,0,1,0-1.328,0v2.884h-1.51v-2a2.774,2.774,0,0,0-.818-1.974l-4.367-4.367a2.084,2.084,0,1,0-.939.939l4.367,4.367a1.455,1.455,0,0,1,.429,1.036v2h-1.465a3.516,3.516,0,0,0-.875.11A.664.664,0,1,0,102,12.749a2.186,2.186,0,0,1,.544-.069h15.608a2.177,2.177,0,0,1,2.174,2.174V30.463a2.186,2.186,0,0,1-.068.544.664.664,0,1,0,1.286.33,3.514,3.514,0,0,0,.11-.874V29h5.876a2.083,2.083,0,1,0,0-1.328h-5.876V26.16h2.884a.664.664,0,1,0,0-1.328h-2.884v-1.51h10.688a.664.664,0,0,0,0-1.328Zm-1.953-11.931a.755.755,0,1,1-.221.534A.75.75,0,0,1,130.389,10.063ZM98.821,2.618a.755.755,0,1,1,0-1.068A.756.756,0,0,1,98.821,2.618Zm17.2,1.64a.755.755,0,1,1,.755-.755A.756.756,0,0,1,116.024,4.258ZM129.5,27.579a.755.755,0,1,1-.755.755A.756.756,0,0,1,129.5,27.579Z" transform="translate(-96.206 -0.001)" fill="#09f"/>
    </g>
  </g>
  <g id="Group_177" data-name="Group 177" transform="translate(0 13.48)">
    <g id="Group_176" data-name="Group 176">
      <path id="Path_81" data-name="Path 81" d="M36.191,180.586a2.085,2.085,0,0,0-2.4-.391l-4.367-4.367A1.455,1.455,0,0,1,29,174.792v-2h1.465a3.514,3.514,0,0,0,.875-.11.664.664,0,1,0-.331-1.286,2.185,2.185,0,0,1-.544.068H14.853a2.177,2.177,0,0,1-2.174-2.174V153.68a2.184,2.184,0,0,1,.068-.544.664.664,0,0,0-1.286-.331,3.509,3.509,0,0,0-.11.875v1.465H5.475a2.083,2.083,0,1,0,0,1.328h5.876v1.51H8.468a.664.664,0,1,0,0,1.328h2.884v1.51H.664a.664.664,0,0,0,0,1.328H11.352v1.51H8.468a.664.664,0,1,0,0,1.328h2.884v1.51h-2a2.774,2.774,0,0,0-1.974.818L3.01,171.679a2.081,2.081,0,1,0,.939.939l4.366-4.366a1.455,1.455,0,0,1,1.036-.429h2v1.465a3.506,3.506,0,0,0,3.5,3.5h1.465v5.876a2.083,2.083,0,1,0,1.328,0V172.79h1.51v2.884a.664.664,0,0,0,1.328,0V172.79h1.51v10.688a.664.664,0,0,0,1.328,0V172.79h1.51v2.884a.664.664,0,0,0,1.328,0V172.79h1.51v2a2.774,2.774,0,0,0,.818,1.974l4.367,4.367a2.082,2.082,0,1,0,3.337-.547ZM3.5,156.563a.755.755,0,1,1,.755-.755A.756.756,0,0,1,3.5,156.563Zm-.885,17.516a.755.755,0,1,1,.221-.534A.75.75,0,0,1,2.617,174.079Zm15.12,6.561a.755.755,0,1,1-.755-.755A.756.756,0,0,1,17.737,180.64Zm17.516,1.953a.755.755,0,1,1,0-1.068A.756.756,0,0,1,35.252,182.593Z" transform="translate(0 -152.306)" fill="#09f"/>
    </g>
  </g>
  <g id="Group_179" data-name="Group 179" transform="translate(15.609 14.899)">
    <g id="Group_178" data-name="Group 178">
      <path id="Path_82" data-name="Path 82" d="M190.455,174.325a3.206,3.206,0,0,0-2.46-3.013,2.268,2.268,0,0,0,.065-.535,2.559,2.559,0,0,0-2.659-2.438,2.761,2.761,0,0,0-2,.829,2.761,2.761,0,0,0-2-.829,2.558,2.558,0,0,0-2.659,2.438,2.267,2.267,0,0,0,.065.535,3.206,3.206,0,0,0-2.46,3.013,2.915,2.915,0,0,0,.7,1.889,3.282,3.282,0,0,0-.7,2.013,3.418,3.418,0,0,0,1.6,2.836v0a2.938,2.938,0,0,0,3.058,2.792,3.167,3.167,0,0,0,2.394-1.058,3.167,3.167,0,0,0,2.394,1.058,2.958,2.958,0,0,0,3.052-2.62,3.1,3.1,0,0,0,1.6-2.655,2.992,2.992,0,0,0-.923-2.128A2.992,2.992,0,0,0,190.455,174.325Zm-2.349,2.715a1.771,1.771,0,0,1,1.021,1.541,1.7,1.7,0,0,1-.585,1.248,2.98,2.98,0,0,0-1.745-1.405.664.664,0,1,0-.4,1.267,1.506,1.506,0,0,1,1.131,1.374,1.755,1.755,0,0,1-3.461,0v-4.257a1.616,1.616,0,0,1,1.731-1.465.664.664,0,0,0,0-1.328,3.245,3.245,0,0,0-1.731.492v-.848a.664.664,0,0,0-1.328,0v3.685a3.162,3.162,0,0,0-.733-.34.664.664,0,0,0-.4,1.266,1.506,1.506,0,0,1,1.131,1.374v1.419a1.755,1.755,0,0,1-3.461,0,1.338,1.338,0,0,1,.413-.947.664.664,0,1,0-.936-.942,2.821,2.821,0,0,0-.41.515,2.025,2.025,0,0,1-.664-1.463,2.261,2.261,0,0,1,1.877-2.1.664.664,0,0,0-.3-1.294,4.043,4.043,0,0,0-1.218.5,1.6,1.6,0,0,1-.362-1,1.993,1.993,0,0,1,2.114-1.819h.018a.663.663,0,0,0,.563-1.013l-.015-.024-.009-.012c-.01-.014-.021-.029-.032-.042h0a.985.985,0,0,1-.243-.637,1.354,1.354,0,0,1,2.663,0,.664.664,0,0,0,1.328,0,1.354,1.354,0,0,1,2.663,0,.933.933,0,0,1-.1.418,3.687,3.687,0,0,0-1.089.273.664.664,0,0,0,.516,1.223,2.4,2.4,0,0,1,.918-.186h.037a1.992,1.992,0,0,1,2.113,1.819,1.771,1.771,0,0,1-1.021,1.541.664.664,0,0,0,0,1.174Z" transform="translate(-176.357 -168.34)" fill="#09f"/>
    </g>
  </g>
</svg>
